<?xml version="1.0" encoding="utf-8"?>
<!-- Generator: Adobe Illustrator 19.0.0, SVG Export Plug-In . SVG Version: 6.00 Build 0)  -->
<svg version="1.1" xmlns="http://www.w3.org/2000/svg" xmlns:xlink="http://www.w3.org/1999/xlink" x="0px" y="0px"
	 viewBox="0 0 21 24.4" style="enable-background:new 0 0 21 24.4;" xml:space="preserve">
<style type="text/css">
	.st0{fill:#FFFFFF;}
</style>
<g id="Layer_2">
</g>
<g id="Layer_1">
	<g id="XMLID_305_">
		<path id="XMLID_475_" class="st0" d="M7.1,12.2c0,1.8,1.6,3.4,3.4,3.4s3.4-1.6,3.4-3.4s-1.6-3.4-3.4-3.4S7.1,10.4,7.1,12.2z"/>
		<path id="XMLID_306_" class="st0" d="M3.3,7.1v10.2c0,1.2,1,2.1,2.1,2.1h10.2c1.2,0,2.1-1,2.1-2.1V7.1c0-1.2-1-2.1-2.1-2.1H5.4
			C4.2,5,3.3,5.9,3.3,7.1z M15.4,12.2c0,2.7-2.2,4.9-4.9,4.9s-4.9-2.2-4.9-4.9c0-2.7,2.2-4.9,4.9-4.9C13.2,7.2,15.4,9.4,15.4,12.2z
			 M6.3,7.2C6.3,7.7,6,8,5.6,8C5.1,8,4.8,7.7,4.8,7.2c0-0.4,0.3-0.8,0.8-0.8C6,6.5,6.3,6.8,6.3,7.2z"/>
	</g>
</g>
</svg>
