<?xml version="1.0" encoding="utf-8"?>
<!-- Generator: Adobe Illustrator 19.0.0, SVG Export Plug-In . SVG Version: 6.00 Build 0)  -->
<svg version="1.1" xmlns="http://www.w3.org/2000/svg" xmlns:xlink="http://www.w3.org/1999/xlink" x="0px" y="0px"
	 viewBox="0 0 21 24.4" style="enable-background:new 0 0 21 24.4;" xml:space="preserve">
<style type="text/css">
	.st0{fill:#FFFFFF;}
</style>
<g id="Layer_2">
</g>
<g id="Layer_1">
	<path id="XMLID_524_" class="st0" d="M18.1,8c-0.3,0.1-0.7,0.3-1,0.3C17.5,8,17.8,7.5,18,7l0,0c0-0.1-0.1-0.3-0.2-0.2l0,0
		c-0.5,0.3-1,0.5-1.6,0.7c0,0-0.1,0-0.1,0c-0.1,0-0.2,0-0.3-0.1c-0.6-0.5-1.4-0.8-2.1-0.8c-0.3,0-0.7,0.1-1,0.2
		C11.5,7,10.7,7.9,10.5,9c-0.1,0.4-0.1,0.8-0.1,1.2c0,0,0,0.1,0,0.1c0,0-0.1,0-0.1,0c0,0,0,0,0,0C7.9,10.1,5.9,9,4.4,7.2l0,0
		c-0.1-0.1-0.2-0.1-0.3,0l0,0C3.8,7.7,3.7,8.2,3.7,8.8c0,0.9,0.4,1.7,1,2.3c-0.3-0.1-0.5-0.2-0.7-0.3l0,0c-0.1-0.1-0.3,0-0.3,0.1
		l0,0c0,1.3,0.7,2.5,1.9,3c0,0,0,0-0.1,0c-0.2,0-0.4,0-0.5-0.1l0,0c-0.1,0-0.2,0.1-0.2,0.2l0,0c0.4,1.2,1.4,2,2.6,2.2
		c-1,0.7-2.1,1-3.4,1l-0.4,0c-0.1,0-0.2,0.1-0.2,0.2c0,0.1,0,0.2,0.1,0.3C4.8,18.6,6.4,19,7.9,19c1.4,0,2.7-0.3,3.8-0.8
		c1.1-0.5,2-1.2,2.8-2.1c0.7-0.8,1.3-1.8,1.7-2.9c0.4-1,0.6-2.1,0.6-3.1v0c0-0.2,0.1-0.3,0.2-0.4c0.5-0.4,0.9-0.9,1.3-1.4l0,0
		C18.4,8.1,18.3,7.9,18.1,8L18.1,8z"/>
</g>
</svg>
